<svg xmlns="http://www.w3.org/2000/svg" width="310" height="212" viewBox="0 0 310 212">
  <rect width="308" height="210" x="1" y="1" rx="8" fill="#1e1e2e" stroke="#45475a" stroke-width="1"/>
  <text x="20" y="32" fill="#cba6f7" font-family="-apple-system,BlinkMacSystemFont,Segoe UI,Helvetica,Arial,sans-serif" font-size="15" font-weight="600">AI (30d)</text>
  <line x1="20" y1="48" x2="290" y2="48" stroke="#45475a" stroke-width="0.5"/>
  <g transform="translate(20, 61)">
      <svg width="16" height="16" viewBox="0 0 24 24" stroke="#cba6f7" fill="none"><path d="M12 5a3 3 0 1 0-5.997.125 4 4 0 0 0-2.526 5.77 4 4 0 0 0 .556 6.588A4 4 0 1 0 12 18Z" fill="none" stroke-width="2" stroke-linecap="round" stroke-linejoin="round"/><path d="M12 5a3 3 0 1 1 5.997.125 4 4 0 0 1 2.526 5.77 4 4 0 0 1-.556 6.588A4 4 0 1 1 12 18Z" fill="none" stroke-width="2" stroke-linecap="round" stroke-linejoin="round"/><path d="M15 13a4.5 4.5 0 0 1-3-4 4.5 4.5 0 0 1-3 4" fill="none" stroke-width="2" stroke-linecap="round" stroke-linejoin="round"/><path d="M17.599 6.5a3 3 0 0 0 .399-1.375" fill="none" stroke-width="2" stroke-linecap="round" stroke-linejoin="round"/><path d="M6.003 5.125A3 3 0 0 0 6.401 6.5" fill="none" stroke-width="2" stroke-linecap="round" stroke-linejoin="round"/><path d="M3.477 10.896a4 4 0 0 1 .585-.396" fill="none" stroke-width="2" stroke-linecap="round" stroke-linejoin="round"/><path d="M19.938 10.5a4 4 0 0 1 .585.396" fill="none" stroke-width="2" stroke-linecap="round" stroke-linejoin="round"/><path d="M6 18a4 4 0 0 1-1.967-.516" fill="none" stroke-width="2" stroke-linecap="round" stroke-linejoin="round"/><path d="M19.967 17.484A4 4 0 0 1 18 18" fill="none" stroke-width="2" stroke-linecap="round" stroke-linejoin="round"/></svg>
    </g>
    <text x="44" y="72" fill="#bac2de" font-family="-apple-system,BlinkMacSystemFont,Segoe UI,Helvetica,Arial,sans-serif" font-size="13">Sessions</text>
    <text x="290" y="72" fill="#cdd6f4" font-family="-apple-system,BlinkMacSystemFont,Segoe UI,Helvetica,Arial,sans-serif" font-size="13" font-weight="600" text-anchor="end">192</text>
    <g transform="translate(20, 91)">
      <svg width="16" height="16" viewBox="0 0 24 24" stroke="#cba6f7" fill="none"><polyline points="4 17 10 11 4 5" fill="none" stroke-width="2" stroke-linecap="round" stroke-linejoin="round"/><line x1="12" x2="20" y1="19" y2="19" fill="none" stroke-width="2" stroke-linecap="round"/></svg>
    </g>
    <text x="44" y="102" fill="#bac2de" font-family="-apple-system,BlinkMacSystemFont,Segoe UI,Helvetica,Arial,sans-serif" font-size="13">Tool calls</text>
    <text x="290" y="102" fill="#cdd6f4" font-family="-apple-system,BlinkMacSystemFont,Segoe UI,Helvetica,Arial,sans-serif" font-size="13" font-weight="600" text-anchor="end">78,444</text>
    <g transform="translate(20, 121)">
      <svg width="16" height="16" viewBox="0 0 24 24" stroke="#cba6f7" fill="none"><path d="M20 20a2 2 0 0 0 2-2V8a2 2 0 0 0-2-2h-7.9a2 2 0 0 1-1.69-.9L9.6 3.9A2 2 0 0 0 7.93 3H4a2 2 0 0 0-2 2v13a2 2 0 0 0 2 2Z" fill="none" stroke-width="2" stroke-linecap="round" stroke-linejoin="round"/></svg>
    </g>
    <text x="44" y="132" fill="#bac2de" font-family="-apple-system,BlinkMacSystemFont,Segoe UI,Helvetica,Arial,sans-serif" font-size="13">Projects</text>
    <text x="290" y="132" fill="#cdd6f4" font-family="-apple-system,BlinkMacSystemFont,Segoe UI,Helvetica,Arial,sans-serif" font-size="13" font-weight="600" text-anchor="end">42</text>
    <g transform="translate(20, 151)">
      <svg width="16" height="16" viewBox="0 0 24 24" stroke="#cba6f7" fill="none"><path d="m12.83 2.18a2 2 0 0 0-1.66 0L2.6 6.08a1 1 0 0 0 0 1.83l8.58 3.91a2 2 0 0 0 1.66 0l8.58-3.9a1 1 0 0 0 0-1.83Z" fill="none" stroke-width="2"/><path d="m22 17.65-9.17 4.16a2 2 0 0 1-1.66 0L2 17.65" fill="none" stroke-width="2"/><path d="m22 12.65-9.17 4.16a2 2 0 0 1-1.66 0L2 12.65" fill="none" stroke-width="2"/></svg>
    </g>
    <text x="44" y="162" fill="#bac2de" font-family="-apple-system,BlinkMacSystemFont,Segoe UI,Helvetica,Arial,sans-serif" font-size="13">Output tokens</text>
    <text x="290" y="162" fill="#cdd6f4" font-family="-apple-system,BlinkMacSystemFont,Segoe UI,Helvetica,Arial,sans-serif" font-size="13" font-weight="600" text-anchor="end">1.6M</text>
    <g transform="translate(20, 181)">
      <svg width="16" height="16" viewBox="0 0 24 24" stroke="#cba6f7" fill="none"><path d="m12.83 2.18a2 2 0 0 0-1.66 0L2.6 6.08a1 1 0 0 0 0 1.83l8.58 3.91a2 2 0 0 0 1.66 0l8.58-3.9a1 1 0 0 0 0-1.83Z" fill="none" stroke-width="2"/><path d="m22 17.65-9.17 4.16a2 2 0 0 1-1.66 0L2 17.65" fill="none" stroke-width="2"/><path d="m22 12.65-9.17 4.16a2 2 0 0 1-1.66 0L2 12.65" fill="none" stroke-width="2"/></svg>
    </g>
    <text x="44" y="192" fill="#bac2de" font-family="-apple-system,BlinkMacSystemFont,Segoe UI,Helvetica,Arial,sans-serif" font-size="13">Cache tokens</text>
    <text x="290" y="192" fill="#cdd6f4" font-family="-apple-system,BlinkMacSystemFont,Segoe UI,Helvetica,Arial,sans-serif" font-size="13" font-weight="600" text-anchor="end">1.2B</text>
</svg>