<svg xmlns="http://www.w3.org/2000/svg" width="310" height="270" viewBox="0 0 310 270">
  <rect width="308" height="268" x="1" y="1" rx="8" fill="#1e1e2e" stroke="#45475a" stroke-width="1"/>
  <text x="20" y="32" fill="#89b4fa" font-family="-apple-system,BlinkMacSystemFont,Segoe UI,Helvetica,Arial,sans-serif" font-size="15" font-weight="600">Languages</text>
  <line x1="20" y1="48" x2="290" y2="48" stroke="#45475a" stroke-width="0.5"/>
  <rect x="17" y="55" width="101.12903225806451" height="198" rx="4" fill="#f9e2af"/>
    <svg x="58.564516129032256" y="90.64" width="18" height="18" viewBox="0 0 24 24"><path d="M0 0h24v24H0V0zm22.034 18.276c-.175-1.095-.888-2.015-3.003-2.873-.736-.345-1.554-.585-1.797-1.14-.091-.33-.105-.51-.046-.705.15-.646.915-.84 1.515-.66.39.12.75.42.976.9 1.034-.676 1.034-.676 1.755-1.125-.27-.42-.404-.601-.586-.78-.63-.705-1.469-1.065-2.834-1.034l-.705.089c-.676.165-1.32.525-1.71 1.005-1.14 1.291-.811 3.541.569 4.471 1.365 1.02 3.361 1.244 3.616 2.205.24 1.17-.87 1.545-1.966 1.41-.811-.18-1.26-.586-1.755-1.336l-1.83 1.051c.21.48.45.689.81 1.109 1.74 1.756 6.09 1.666 6.871-1.004.029-.09.24-.705.074-1.65l.046.067zm-8.983-7.245h-2.248c0 1.938-.009 3.864-.009 5.805 0 1.232.063 2.363-.138 2.711-.33.689-1.18.601-1.566.48-.396-.196-.597-.466-.83-.855-.063-.105-.11-.196-.127-.196l-1.825 1.125c.305.63.75 1.172 1.324 1.517.855.51 2.004.675 3.207.405.783-.226 1.458-.691 1.811-1.411.51-.93.402-2.07.397-3.346.012-2.054 0-4.109 0-6.179l.004-.056z" fill="#11111b" opacity="0.85"/></svg><text x="67.56451612903226" y="122.64" fill="#11111b" font-family="-apple-system,BlinkMacSystemFont,Segoe UI,Helvetica,Arial,sans-serif" font-size="12" font-weight="600" text-anchor="middle" opacity="0.9">JavaScript</text><text x="67.56451612903226" y="135.64" fill="#11111b" font-family="-apple-system,BlinkMacSystemFont,Segoe UI,Helvetica,Arial,sans-serif" font-size="10" text-anchor="middle" opacity="0.5">37.1%</text>
    <rect x="120.12903225806451" y="55" width="172.8709677419355" height="80.05128205128206" rx="4" fill="#89b4fa"/>
    <svg x="197.56451612903226" y="69.40923076923077" width="18" height="18" viewBox="0 0 24 24"><path d="M1.125 0C.502 0 0 .502 0 1.125v21.75C0 23.498.502 24 1.125 24h21.75c.623 0 1.125-.502 1.125-1.125V1.125C24 .502 23.498 0 22.875 0zm17.363 9.75c.612 0 1.154.037 1.627.111a6.38 6.38 0 0 1 1.306.34v2.458a3.95 3.95 0 0 0-.643-.361 5.093 5.093 0 0 0-.717-.26 5.453 5.453 0 0 0-1.426-.2c-.3 0-.573.028-.819.086a2.1 2.1 0 0 0-.623.242c-.17.104-.3.229-.393.374a.888.888 0 0 0-.14.49c0 .196.053.373.156.529.104.156.252.304.443.444s.423.276.696.41c.273.135.582.274.926.416.47.197.892.407 1.266.628.374.222.695.473.963.753.268.279.472.598.614.957.142.359.214.776.214 1.253 0 .657-.125 1.21-.373 1.656a3.033 3.033 0 0 1-1.012 1.085 4.38 4.38 0 0 1-1.487.596c-.566.12-1.163.18-1.79.18a9.916 9.916 0 0 1-1.84-.164 5.544 5.544 0 0 1-1.512-.493v-2.63a5.033 5.033 0 0 0 3.237 1.2c.333 0 .624-.03.872-.09.249-.06.456-.144.623-.25.166-.108.29-.234.373-.38a1.023 1.023 0 0 0-.074-1.089 2.12 2.12 0 0 0-.537-.5 5.597 5.597 0 0 0-.807-.444 27.72 27.72 0 0 0-1.007-.436c-.918-.383-1.602-.852-2.053-1.405-.45-.553-.676-1.222-.676-2.005 0-.614.123-1.141.369-1.582.246-.441.58-.804 1.004-1.089a4.494 4.494 0 0 1 1.47-.629 7.536 7.536 0 0 1 1.77-.201zm-15.113.188h9.563v2.166H9.506v9.646H6.789v-9.646H3.375z" fill="#11111b" opacity="0.85"/></svg><text x="206.56451612903226" y="101.40923076923077" fill="#11111b" font-family="-apple-system,BlinkMacSystemFont,Segoe UI,Helvetica,Arial,sans-serif" font-size="12" font-weight="600" text-anchor="middle" opacity="0.9">TypeScript</text><text x="206.56451612903226" y="114.40923076923077" fill="#11111b" font-family="-apple-system,BlinkMacSystemFont,Segoe UI,Helvetica,Arial,sans-serif" font-size="10" text-anchor="middle" opacity="0.5">25.8%</text>
    <rect x="120.12903225806451" y="137.05128205128204" width="89.23702664796633" height="56.97435897435897" rx="4" fill="#fab387"/>
    <svg x="156.20139173589382" y="147.30666666666667" width="17.092307692307692" height="17.092307692307692" viewBox="0 0 24 24"><path d="M1.5 0h21l-1.91 21.563L11.977 24l-8.564-2.438L1.5 0zm7.031 9.75l-.232-2.718 10.059.003.23-2.622L5.412 4.41l.698 8.01h9.126l-.326 3.426-2.91.804-2.955-.81-.188-2.11H6.248l.33 4.171L12 19.351l5.379-1.443.744-8.157H8.531z" fill="#11111b" opacity="0.85"/></svg><text x="164.74754558204768" y="178.39897435897436" fill="#11111b" font-family="-apple-system,BlinkMacSystemFont,Segoe UI,Helvetica,Arial,sans-serif" font-size="12" font-weight="600" text-anchor="middle" opacity="0.9">HTML</text><text x="164.74754558204768" y="191.39897435897436" fill="#11111b" font-family="-apple-system,BlinkMacSystemFont,Segoe UI,Helvetica,Arial,sans-serif" font-size="10" text-anchor="middle" opacity="0.5">9.7%</text>
    <rect x="120.12903225806451" y="196.02564102564102" width="89.23702664796633" height="56.97435897435897" rx="4" fill="#a6e3a1"/>
    <svg x="156.20139173589382" y="206.28102564102562" width="17.092307692307692" height="17.092307692307692" viewBox="0 0 24 24"><path d="M21.038,4.9l-7.577-4.498C13.009,0.134,12.505,0,12,0c-0.505,0-1.009,0.134-1.462,0.403L2.961,4.9 C2.057,5.437,1.5,6.429,1.5,7.503v8.995c0,1.073,0.557,2.066,1.462,2.603l7.577,4.497C10.991,23.866,11.495,24,12,24 c0.505,0,1.009-0.134,1.461-0.402l7.577-4.497c0.904-0.537,1.462-1.529,1.462-2.603V7.503C22.5,6.429,21.943,5.437,21.038,4.9z M15.17,18.946l0.013,0.646c0.001,0.078-0.05,0.167-0.111,0.198l-0.383,0.22c-0.061,0.031-0.111-0.007-0.112-0.085L14.57,19.29 c-0.328,0.136-0.66,0.169-0.872,0.084c-0.04-0.016-0.057-0.075-0.041-0.142l0.139-0.584c0.011-0.046,0.036-0.092,0.069-0.121 c0.012-0.011,0.024-0.02,0.036-0.026c0.022-0.011,0.043-0.014,0.062-0.006c0.229,0.077,0.521,0.041,0.802-0.101 c0.357-0.181,0.596-0.545,0.592-0.907c-0.003-0.328-0.181-0.465-0.613-0.468c-0.55,0.001-1.064-0.107-1.072-0.917 c-0.007-0.667,0.34-1.361,0.889-1.8l-0.007-0.652c-0.001-0.08,0.048-0.168,0.111-0.2l0.37-0.236 c0.061-0.031,0.111,0.007,0.112,0.087l0.006,0.653c0.273-0.109,0.511-0.138,0.726-0.088c0.047,0.012,0.067,0.076,0.048,0.151 l-0.144,0.578c-0.011,0.044-0.036,0.088-0.065,0.116c-0.012,0.012-0.025,0.021-0.038,0.028c-0.019,0.01-0.038,0.013-0.057,0.009 c-0.098-0.022-0.332-0.073-0.699,0.113c-0.385,0.195-0.52,0.53-0.517,0.778c0.003,0.297,0.155,0.387,0.681,0.396 c0.7,0.012,1.003,0.318,1.01,1.023C16.105,17.747,15.736,18.491,15.17,18.946z M19.143,17.859c0,0.06-0.008,0.116-0.058,0.145 l-1.916,1.164c-0.05,0.029-0.09,0.004-0.09-0.056v-0.494c0-0.06,0.037-0.093,0.087-0.122l1.887-1.129 c0.05-0.029,0.09-0.004,0.09,0.056V17.859z M20.459,6.797l-7.168,4.427c-0.894,0.523-1.553,1.109-1.553,2.187v8.833 c0,0.645,0.26,1.063,0.66,1.184c-0.131,0.023-0.264,0.039-0.398,0.039c-0.42,0-0.833-0.114-1.197-0.33L3.226,18.64 c-0.741-0.44-1.201-1.261-1.201-2.142V7.503c0-0.881,0.46-1.702,1.201-2.142l7.577-4.498c0.363-0.216,0.777-0.33,1.197-0.33 c0.419,0,0.833,0.114,1.197,0.33l7.577,4.498c0.624,0.371,1.046,1.013,1.164,1.732C21.686,6.557,21.12,6.411,20.459,6.797z" fill="#11111b" opacity="0.85"/></svg><text x="164.74754558204768" y="237.3733333333333" fill="#11111b" font-family="-apple-system,BlinkMacSystemFont,Segoe UI,Helvetica,Arial,sans-serif" font-size="12" font-weight="600" text-anchor="middle" opacity="0.9">Shell</text><text x="164.74754558204768" y="250.3733333333333" fill="#11111b" font-family="-apple-system,BlinkMacSystemFont,Segoe UI,Helvetica,Arial,sans-serif" font-size="10" text-anchor="middle" opacity="0.5">9.7%</text>
    <rect x="211.36605890603084" y="137.05128205128204" width="81.63394109396916" height="62.33566433566433" rx="4" fill="#eba0ac"/>
    <svg x="243.18302945301542" y="148.27170163170163" width="18" height="18" viewBox="0 0 24 24"><path d="M23.8346 11.7033l-1.0073-.6236a13.7268 13.7268 0 00-.0283-.2936l.8656-.8069a.3483.3483 0 00-.1154-.578l-1.1066-.414a8.4958 8.4958 0 00-.087-.2856l.6904-.9587a.3462.3462 0 00-.2257-.5446l-1.1663-.1894a9.3574 9.3574 0 00-.1407-.2622l.49-1.0761a.3437.3437 0 00-.0274-.3361.3486.3486 0 00-.3006-.154l-1.1845.0416a6.7444 6.7444 0 00-.1873-.2268l.2723-1.153a.3472.3472 0 00-.417-.4172l-1.1532.2724a14.0183 14.0183 0 00-.2278-.1873l.0415-1.1845a.3442.3442 0 00-.49-.328l-1.076.491c-.0872-.0476-.1742-.0952-.2623-.1407l-.1903-1.1673A.3483.3483 0 0016.256.955l-.9597.6905a8.4867 8.4867 0 00-.2855-.086l-.414-1.1066a.3483.3483 0 00-.5781-.1154l-.8069.8666a9.2936 9.2936 0 00-.2936-.0284L12.2946.1683a.3462.3462 0 00-.5892 0l-.6236 1.0073a13.7383 13.7383 0 00-.2936.0284L9.9803.3374a.3462.3462 0 00-.578.1154l-.4141 1.1065c-.0962.0274-.1903.0567-.2855.086L7.744.955a.3483.3483 0 00-.5447.2258L7.009 2.348a9.3574 9.3574 0 00-.2622.1407l-1.0762-.491a.3462.3462 0 00-.49.328l.0416 1.1845a7.9826 7.9826 0 00-.2278.1873L3.8413 3.425a.3472.3472 0 00-.4171.4171l.2713 1.1531c-.0628.075-.1255.1509-.1863.2268l-1.1845-.0415a.3462.3462 0 00-.328.49l.491 1.0761a9.167 9.167 0 00-.1407.2622l-1.1662.1894a.3483.3483 0 00-.2258.5446l.6904.9587a13.303 13.303 0 00-.087.2855l-1.1065.414a.3483.3483 0 00-.1155.5781l.8656.807a9.2936 9.2936 0 00-.0283.2935l-1.0073.6236a.3442.3442 0 000 .5892l1.0073.6236c.008.0982.0182.1964.0283.2936l-.8656.8079a.3462.3462 0 00.1155.578l1.1065.4141c.0273.0962.0567.1914.087.2855l-.6904.9587a.3452.3452 0 00.2268.5447l1.1662.1893c.0456.088.0922.1751.1408.2622l-.491 1.0762a.3462.3462 0 00.328.49l1.1834-.0415c.0618.0769.1235.1528.1873.2277l-.2713 1.1541a.3462.3462 0 00.4171.4161l1.153-.2713c.075.0638.151.1255.2279.1863l-.0415 1.1845a.3442.3442 0 00.49.327l1.0761-.49c.087.0486.1741.0951.2622.1407l.1903 1.1662a.3483.3483 0 00.5447.2268l.9587-.6904a9.299 9.299 0 00.2855.087l.414 1.1066a.3452.3452 0 00.5781.1154l.8079-.8656c.0972.0111.1954.0203.2936.0294l.6236 1.0073a.3472.3472 0 00.5892 0l.6236-1.0073c.0982-.0091.1964-.0183.2936-.0294l.8069.8656a.3483.3483 0 00.578-.1154l.4141-1.1066a8.4626 8.4626 0 00.2855-.087l.9587.6904a.3452.3452 0 00.5447-.2268l.1903-1.1662c.088-.0456.1751-.0931.2622-.1407l1.0762.49a.3472.3472 0 00.49-.327l-.0415-1.1845a6.7267 6.7267 0 00.2267-.1863l1.1531.2713a.3472.3472 0 00.4171-.416l-.2713-1.1542c.0628-.0749.1255-.1508.1863-.2278l1.1845.0415a.3442.3442 0 00.328-.49l-.49-1.076c.0475-.0872.0951-.1742.1407-.2623l1.1662-.1893a.3483.3483 0 00.2258-.5447l-.6904-.9587.087-.2855 1.1066-.414a.3462.3462 0 00.1154-.5781l-.8656-.8079c.0101-.0972.0202-.1954.0283-.2936l1.0073-.6236a.3442.3442 0 000-.5892zM12 18.508a6.508 6.508 0 110-13.016 6.508 6.508 0 010 13.016z" fill="#11111b" opacity="0.85"/></svg><text x="252.18302945301542" y="180.27170163170163" fill="#11111b" font-family="-apple-system,BlinkMacSystemFont,Segoe UI,Helvetica,Arial,sans-serif" font-size="12" font-weight="600" text-anchor="middle" opacity="0.9">Rust</text><text x="252.18302945301542" y="193.27170163170163" fill="#11111b" font-family="-apple-system,BlinkMacSystemFont,Segoe UI,Helvetica,Arial,sans-serif" font-size="10" text-anchor="middle" opacity="0.5">9.7%</text>
    <rect x="211.36605890603084" y="201.38694638694636" width="31.453576437587657" height="51.613053613053616" rx="4" fill="#f38ba8"/>
    <svg x="220.80213183730714" y="220.90275790595564" width="12.581430575035064" height="12.581430575035064" viewBox="0 0 24 24"><path d="M20.156.083c3.033.525 3.893 2.598 3.829 4.77L24 4.822 22.635 22.71 4.89 23.926h.016C3.433 23.864.15 23.729 0 19.139l1.645-3 2.819 6.586.503 1.172 2.805-9.144-.03.007.016-.03 9.255 2.956-1.396-5.431-.99-3.9 8.82-.569-.615-.51L16.5 2.114 20.159.073l-.003.01zM0 19.089zM5.13 5.073c3.561-3.533 8.157-5.621 9.922-3.84 1.762 1.777-.105 6.105-3.673 9.636-3.563 3.532-8.103 5.734-9.864 3.957-1.766-1.777.045-6.217 3.612-9.75l.003-.003z" fill="#11111b" opacity="0.85"/></svg>
    <rect x="244.8196353436185" y="201.38694638694636" width="23.09018232819075" height="33.74203574203574" rx="4" fill="#cba6f7"/>
    <svg x="251.74669004207573" y="213.6399277923261" width="9.2360729312763" height="9.2360729312763" viewBox="0 0 24 24"><path d="M24 8.77h-2.468v7.565h-1.425V8.77h-2.462V7.53H24zm-6.852 7.565h-4.821V7.53h4.63v1.24h-3.205v2.494h2.953v1.234h-2.953v2.604h3.396zm-6.708 0H8.882L4.78 9.863a2.896 2.896 0 0 1-.258-.51h-.036c.032.189.048.592.048 1.21v5.772H3.157V7.53h1.659l3.965 6.32c.167.261.275.442.323.54h.024c-.04-.233-.06-.629-.06-1.185V7.529h1.372zm-8.703-.693a.868.829 0 0 1-.869.829.868.829 0 0 1-.868-.83.868.829 0 0 1 .868-.828.868.829 0 0 1 .869.829Z" fill="#11111b" opacity="0.85"/></svg>
    <rect x="269.90981767180926" y="201.38694638694636" width="23.09018232819075" height="33.74203574203574" rx="4" fill="#b4befe"/>
    <svg x="276.83687237026646" y="213.6399277923261" width="9.2360729312763" height="9.2360729312763" viewBox="0 0 24 24"><path d="M0 0v20.16A3.84 3.84 0 0 0 3.84 24h16.32A3.84 3.84 0 0 0 24 20.16V3.84A3.84 3.84 0 0 0 20.16 0Zm14.256 13.08c1.56 0 2.28 1.08 2.304 2.64h-1.608c.024-.288-.048-.6-.144-.84-.096-.192-.288-.264-.552-.264-.456 0-.696.264-.696.84-.024.576.288.888.768 1.08.72.288 1.608.744 1.92 1.296q.432.648.432 1.656c0 1.608-.912 2.592-2.496 2.592-1.656 0-2.4-1.032-2.424-2.688h1.68c0 .792.264 1.176.792 1.176.264 0 .456-.072.552-.24.192-.312.24-1.176-.048-1.512-.312-.408-.912-.6-1.32-.816q-.828-.396-1.224-.936c-.24-.36-.36-.888-.36-1.536 0-1.44.936-2.472 2.424-2.448m5.4 0c1.584 0 2.304 1.08 2.328 2.64h-1.608c0-.288-.048-.6-.168-.84-.096-.192-.264-.264-.528-.264-.48 0-.72.264-.72.84s.288.888.792 1.08c.696.288 1.608.744 1.92 1.296.264.432.408.984.408 1.656.024 1.608-.888 2.592-2.472 2.592-1.68 0-2.424-1.056-2.448-2.688h1.68c0 .744.264 1.176.792 1.176.264 0 .456-.072.552-.24.216-.312.264-1.176-.048-1.512-.288-.408-.888-.6-1.32-.816-.552-.264-.96-.576-1.2-.936s-.36-.888-.36-1.536c-.024-1.44.912-2.472 2.4-2.448m-11.031.018c.711-.006 1.419.198 1.839.63.432.432.672 1.128.648 1.992H9.336c.024-.456-.096-.792-.432-.96-.312-.144-.768-.048-.888.24-.12.264-.192.576-.168.864v3.504c0 .744.264 1.128.768 1.128a.65.65 0 0 0 .552-.264c.168-.24.192-.552.168-.84h1.776c.096 1.632-.984 2.712-2.568 2.688-1.536 0-2.496-.864-2.472-2.472v-4.032c0-.816.24-1.44.696-1.848.432-.408 1.146-.624 1.857-.63" fill="#11111b" opacity="0.85"/></svg>
    <rect x="244.8196353436185" y="237.1289821289821" width="48.1803646563815" height="15.87101787101787" rx="4" fill="#74c7ec"/>
    
</svg>