<svg xmlns="http://www.w3.org/2000/svg" width="310" height="212" viewBox="0 0 310 212">
  <rect width="308" height="210" x="1" y="1" rx="8" fill="#1e1e2e" stroke="#45475a" stroke-width="1"/>
  <text x="20" y="32" fill="#89b4fa" font-family="-apple-system,BlinkMacSystemFont,Segoe UI,Helvetica,Arial,sans-serif" font-size="15" font-weight="600">GitHub Stats</text>
  <line x1="20" y1="48" x2="290" y2="48" stroke="#45475a" stroke-width="0.5"/>
  <g transform="translate(20, 61)">
      <svg width="16" height="16" viewBox="0 0 24 24" stroke="#89b4fa" fill="none"><path d="M3 18a1 1 0 0 1-1-1V4a1 1 0 0 1 1-1h5a4 4 0 0 1 4 4 4 4 0 0 1 4-4h5a1 1 0 0 1 1 1v13a1 1 0 0 1-1 1h-6a3 3 0 0 0-3 3 3 3 0 0 0-3-3z" fill="none" stroke-width="2" stroke-linecap="round" stroke-linejoin="round"/><path d="M12 7v14" fill="none" stroke-width="2" stroke-linecap="round"/></svg>
    </g>
    <text x="44" y="72" fill="#bac2de" font-family="-apple-system,BlinkMacSystemFont,Segoe UI,Helvetica,Arial,sans-serif" font-size="13">Repos</text>
    <text x="290" y="72" fill="#cdd6f4" font-family="-apple-system,BlinkMacSystemFont,Segoe UI,Helvetica,Arial,sans-serif" font-size="13" font-weight="600" text-anchor="end">168</text>
    <g transform="translate(20, 91)">
      <svg width="16" height="16" viewBox="0 0 24 24" stroke="#89b4fa" fill="none"><circle cx="12" cy="12" r="3" fill="none" stroke-width="2"/><line x1="3" x2="9" y1="12" y2="12" stroke-width="2" stroke-linecap="round"/><line x1="15" x2="21" y1="12" y2="12" stroke-width="2" stroke-linecap="round"/></svg>
    </g>
    <text x="44" y="102" fill="#bac2de" font-family="-apple-system,BlinkMacSystemFont,Segoe UI,Helvetica,Arial,sans-serif" font-size="13">Commits</text>
    <text x="290" y="102" fill="#cdd6f4" font-family="-apple-system,BlinkMacSystemFont,Segoe UI,Helvetica,Arial,sans-serif" font-size="13" font-weight="600" text-anchor="end">2,727</text>
    <g transform="translate(20, 121)">
      <svg width="16" height="16" viewBox="0 0 24 24" stroke="#89b4fa" fill="none"><circle cx="18" cy="18" r="3" fill="none" stroke-width="2"/><circle cx="6" cy="6" r="3" fill="none" stroke-width="2"/><path d="M13 6h3a2 2 0 0 1 2 2v7" fill="none" stroke-width="2" stroke-linecap="round" stroke-linejoin="round"/><line x1="6" x2="6" y1="9" y2="21" stroke-width="2" stroke-linecap="round"/></svg>
    </g>
    <text x="44" y="132" fill="#bac2de" font-family="-apple-system,BlinkMacSystemFont,Segoe UI,Helvetica,Arial,sans-serif" font-size="13">PRs</text>
    <text x="290" y="132" fill="#cdd6f4" font-family="-apple-system,BlinkMacSystemFont,Segoe UI,Helvetica,Arial,sans-serif" font-size="13" font-weight="600" text-anchor="end">329</text>
    <g transform="translate(20, 151)">
      <svg width="16" height="16" viewBox="0 0 24 24" stroke="#89b4fa" fill="none"><path d="M16 21v-2a4 4 0 0 0-4-4H6a4 4 0 0 0-4 4v2" fill="none" stroke-width="2" stroke-linecap="round" stroke-linejoin="round"/><circle cx="9" cy="7" r="4" fill="none" stroke-width="2"/><path d="M22 21v-2a4 4 0 0 0-3-3.87" fill="none" stroke-width="2" stroke-linecap="round" stroke-linejoin="round"/><path d="M16 3.128a4 4 0 0 1 0 7.744" fill="none" stroke-width="2" stroke-linecap="round" stroke-linejoin="round"/></svg>
    </g>
    <text x="44" y="162" fill="#bac2de" font-family="-apple-system,BlinkMacSystemFont,Segoe UI,Helvetica,Arial,sans-serif" font-size="13">Followers</text>
    <text x="290" y="162" fill="#cdd6f4" font-family="-apple-system,BlinkMacSystemFont,Segoe UI,Helvetica,Arial,sans-serif" font-size="13" font-weight="600" text-anchor="end">67</text>
    <g transform="translate(20, 181)">
      <svg width="16" height="16" viewBox="0 0 24 24" stroke="#89b4fa" fill="none"><path d="M6 22a2 2 0 0 1-2-2V4a2 2 0 0 1 2-2h8a2.4 2.4 0 0 1 1.704.706l3.588 3.588A2.4 2.4 0 0 1 20 8v12a2 2 0 0 1-2 2z" fill="none" stroke-width="2" stroke-linecap="round" stroke-linejoin="round"/><path d="M14 2v5a1 1 0 0 0 1 1h5" fill="none" stroke-width="2" stroke-linecap="round"/><path d="M10 12.5 8 15l2 2.5" fill="none" stroke-width="2" stroke-linecap="round" stroke-linejoin="round"/><path d="m14 12.5 2 2.5-2 2.5" fill="none" stroke-width="2" stroke-linecap="round" stroke-linejoin="round"/></svg>
    </g>
    <text x="44" y="192" fill="#bac2de" font-family="-apple-system,BlinkMacSystemFont,Segoe UI,Helvetica,Arial,sans-serif" font-size="13">Gists</text>
    <text x="290" y="192" fill="#cdd6f4" font-family="-apple-system,BlinkMacSystemFont,Segoe UI,Helvetica,Arial,sans-serif" font-size="13" font-weight="600" text-anchor="end">43</text>
</svg>