<svg xmlns="http://www.w3.org/2000/svg" width="310" height="182" viewBox="0 0 310 182">
  <rect width="308" height="180" x="1" y="1" rx="8" fill="#1e1e2e" stroke="#45475a" stroke-width="1"/>
  <text x="20" y="32" fill="#a6e3a1" font-family="-apple-system,BlinkMacSystemFont,Segoe UI,Helvetica,Arial,sans-serif" font-size="15" font-weight="600">Movement</text>
  <line x1="20" y1="48" x2="290" y2="48" stroke="#45475a" stroke-width="0.5"/>
  <g transform="translate(20, 61)">
      <svg width="16" height="16" viewBox="0 0 24 24" stroke="#a6e3a1" fill="none"><path d="M20 10c0 4.993-5.539 10.193-7.399 11.799a1 1 0 0 1-1.202 0C9.539 20.193 4 14.993 4 10a8 8 0 0 1 16 0" fill="none" stroke-width="2" stroke-linecap="round" stroke-linejoin="round"/><circle cx="12" cy="10" r="3" fill="none" stroke-width="2"/></svg>
    </g>
    <text x="44" y="72" fill="#bac2de" font-family="-apple-system,BlinkMacSystemFont,Segoe UI,Helvetica,Arial,sans-serif" font-size="13">Distance</text>
    <text x="290" y="72" fill="#cdd6f4" font-family="-apple-system,BlinkMacSystemFont,Segoe UI,Helvetica,Arial,sans-serif" font-size="13" font-weight="600" text-anchor="end">3,539 km (2026)</text>
    <g transform="translate(20, 91)">
      <svg width="16" height="16" viewBox="0 0 24 24" stroke="#a6e3a1" fill="none"><polygon points="12 2 15.09 8.26 22 9.27 17 14.14 18.18 21.02 12 17.77 5.82 21.02 7 14.14 2 9.27 8.91 8.26 12 2" fill="none" stroke-width="2" stroke-linejoin="round"/></svg>
    </g>
    <text x="44" y="102" fill="#bac2de" font-family="-apple-system,BlinkMacSystemFont,Segoe UI,Helvetica,Arial,sans-serif" font-size="13">Points</text>
    <text x="290" y="102" fill="#cdd6f4" font-family="-apple-system,BlinkMacSystemFont,Segoe UI,Helvetica,Arial,sans-serif" font-size="13" font-weight="600" text-anchor="end">41,086</text>
    <g transform="translate(20, 121)">
      <svg width="16" height="16" viewBox="0 0 24 24" stroke="#a6e3a1" fill="none"><rect width="18" height="18" x="3" y="4" rx="2" fill="none" stroke-width="2"/><line x1="16" x2="16" y1="2" y2="6" stroke-width="2" stroke-linecap="round"/><line x1="8" x2="8" y1="2" y2="6" stroke-width="2" stroke-linecap="round"/><line x1="3" x2="21" y1="10" y2="10" stroke-width="2"/></svg>
    </g>
    <text x="44" y="132" fill="#bac2de" font-family="-apple-system,BlinkMacSystemFont,Segoe UI,Helvetica,Arial,sans-serif" font-size="13">Active days</text>
    <text x="290" y="132" fill="#cdd6f4" font-family="-apple-system,BlinkMacSystemFont,Segoe UI,Helvetica,Arial,sans-serif" font-size="13" font-weight="600" text-anchor="end">169</text>
    <g transform="translate(20, 151)">
      <svg width="16" height="16" viewBox="0 0 24 24" stroke="#a6e3a1" fill="none"><path d="M8.5 14.5A2.5 2.5 0 0 0 11 12c0-1.38-.5-2-1-3-1.072-2.143-.224-4.054 2-6 .5 2.5 2 4.9 4 6.5 2 1.6 3 3.5 3 5.5a7 7 0 1 1-14 0c0-1.153.433-2.294 1-3a2.5 2.5 0 0 0 2.5 2.5z" fill="none" stroke-width="2" stroke-linecap="round" stroke-linejoin="round"/></svg>
    </g>
    <text x="44" y="162" fill="#bac2de" font-family="-apple-system,BlinkMacSystemFont,Segoe UI,Helvetica,Arial,sans-serif" font-size="13">Best streak</text>
    <text x="290" y="162" fill="#cdd6f4" font-family="-apple-system,BlinkMacSystemFont,Segoe UI,Helvetica,Arial,sans-serif" font-size="13" font-weight="600" text-anchor="end">138 days</text>
</svg>